<svg viewBox="0 0 270 271" fill="none" xmlns="http://www.w3.org/2000/svg">
<g clip-path="url(#clip0_105_4707)">
<path d="M155.25 0.5H114.75C66.3103 0.556854 27.0561 39.811 26.9993 88.2508V115.249C27.0957 200.953 96.5468 270.404 182.251 270.501H236.25C238.04 270.501 239.758 269.791 241.023 268.523C242.291 267.258 243.001 265.54 243.001 263.75V88.2508C242.944 39.811 203.69 0.556854 155.25 0.5ZM114.75 13.9992H155.25C165.889 14.0091 176.4 16.3203 186.06 20.7772C162.787 25.4516 143.523 41.7045 135 63.8604C126.477 41.7045 107.213 25.4516 83.94 20.7772C93.6003 16.3203 104.111 14.0091 114.75 13.9992ZM66.162 32.2346C104.586 32.9489 128.249 60.721 128.249 101.75C128.249 105.478 131.272 108.501 135 108.501C138.728 108.501 141.751 105.478 141.751 101.75C141.751 60.721 165.415 32.9489 203.838 32.2346C220.123 46.2899 229.489 66.7377 229.499 88.2508C229.499 129.752 190.688 175.999 135 175.999C76.4526 175.999 40.5009 124.895 40.5009 88.2508C40.5108 66.7377 49.8769 46.2899 66.162 32.2346ZM42.4018 137.365C62.3552 169.402 97.2612 189.056 135 189.501C148.88 189.503 162.629 186.834 175.5 181.64V182.75C175.5 215.733 184.3 240.556 201.562 256.999H182.251C112.582 256.876 53.3154 206.176 42.4043 137.365H42.4018ZM229.499 256.999H224.583C200.694 244.429 188.999 220.175 188.999 182.75V175.193C205.766 165.553 219.728 151.705 229.499 135.015V256.999Z" fill="#1E1E1E"/>
<path d="M94.5001 81.5C94.5001 88.9553 88.4562 94.9992 81.0009 94.9992C73.5431 94.9992 67.4993 88.9553 67.4993 81.5C67.4993 74.0447 73.5431 68.0008 81.0009 68.0008C88.4562 68.0008 94.5001 74.0447 94.5001 81.5Z" fill="#1E1E1E"/>
<path d="M202.501 81.5C202.501 88.9553 196.457 94.9992 188.999 94.9992C181.544 94.9992 175.5 88.9553 175.5 81.5C175.5 74.0447 181.544 68.0008 188.999 68.0008C196.457 68.0008 202.501 74.0447 202.501 81.5Z" fill="#1E1E1E"/>
</g>
<defs>
<clipPath id="clip0_105_4707">
<rect width="270" height="270" fill="white" transform="translate(0 0.5)"/>
</clipPath>
</defs>
</svg>
